<?xml version="1.0" encoding="UTF-8"?>
<!DOCTYPE svg PUBLIC "-//W3C//DTD SVG 1.1//EN" "http://www.w3.org/Graphics/SVG/1.1/DTD/svg11.dtd">
<svg xmlns="http://www.w3.org/2000/svg" version="1.1" width="1920px" height="1920px" style="shape-rendering:geometricPrecision; text-rendering:geometricPrecision; image-rendering:optimizeQuality; fill-rule:evenodd; clip-rule:evenodd" xmlns:xlink="http://www.w3.org/1999/xlink">
<g><path style="opacity:0.986" fill="#fefffe" d="M 1077.5,196.5 C 1150.38,194.35 1222.71,199.516 1294.5,212C 1303.87,212.224 1313.2,212.891 1322.5,214C 1340.8,219.46 1359.14,224.793 1377.5,230C 1396.78,237.617 1416.12,245.284 1435.5,253C 1472.15,270.506 1506.15,292.34 1537.5,318.5C 1548.5,329.5 1559.5,340.5 1570.5,351.5C 1602.13,388.814 1625.63,430.814 1641,477.5C 1655.81,524.487 1662.97,572.654 1662.5,622C 1662.87,678.37 1653.37,732.87 1634,785.5C 1625.07,806.344 1614.24,826.011 1601.5,844.5C 1555.42,902.34 1500.42,912.84 1436.5,876C 1428.39,870.073 1420.06,864.573 1411.5,859.5C 1397.5,848.495 1383.83,837.161 1370.5,825.5C 1324.48,781.815 1279.48,737.148 1235.5,691.5C 1228.83,685.833 1222.17,680.167 1215.5,674.5C 1210.52,669.854 1205.86,664.854 1201.5,659.5C 1194.72,655.099 1188.72,649.766 1183.5,643.5C 1168.88,631.885 1154.55,619.885 1140.5,607.5C 1128.24,599.015 1116.24,590.015 1104.5,580.5C 1089.2,570.513 1073.87,560.513 1058.5,550.5C 1047.81,544.488 1037.14,538.488 1026.5,532.5C 967.773,502.486 905.44,484.153 839.5,477.5C 784.658,473.764 730.825,478.764 678,492.5C 666.532,496.229 655.032,499.562 643.5,502.5C 631.899,506.671 620.232,511.004 608.5,515.5C 548.461,541.575 492.128,573.908 439.5,612.5C 409.538,636.084 379.538,659.584 349.5,683C 344.396,686.47 338.896,688.97 333,690.5C 327.255,690.921 324.755,688.254 325.5,682.5C 326.926,674.721 329.26,667.221 332.5,660C 338.127,650.245 343.461,640.412 348.5,630.5C 387.051,571.959 431.385,518.292 481.5,469.5C 544.231,408.595 612.897,355.428 687.5,310C 711.826,297.006 736.159,284.006 760.5,271C 811.919,246.864 865.086,227.698 920,213.5C 972.362,205.307 1024.86,199.64 1077.5,196.5 Z"/></g>
<g><path style="opacity:0.97" fill="#fefffe" d="M 694.5,521.5 C 706.601,521.055 718.601,521.888 730.5,524C 744.919,527.99 751.585,537.49 750.5,552.5C 749.728,560.558 748.561,568.558 747,576.5C 737.932,600.036 726.765,622.536 713.5,644C 700.656,663.331 687.656,682.498 674.5,701.5C 635.794,751.539 591.128,795.539 540.5,833.5C 509.765,855.703 477.099,874.87 442.5,891C 435.226,893.092 428.059,895.592 421,898.5C 412.124,900.825 403.291,902.991 394.5,905C 380.745,906.943 367.745,904.776 355.5,898.5C 352.435,895.938 349.935,892.938 348,889.5C 344.698,871.467 345.031,853.467 349,835.5C 374.014,758.368 415.847,692.035 474.5,636.5C 501.241,613.267 529.575,592.1 559.5,573C 594.053,552.819 630.553,537.319 669,526.5C 677.002,524.404 685.169,523.238 693.5,523C 694.056,522.617 694.389,522.117 694.5,521.5 Z"/></g>
<g><path style="opacity:0.985" fill="#fefffe" d="M 1046.5,670.5 C 1078.6,670.907 1109.94,675.74 1140.5,685C 1215.26,711.755 1262.42,763.589 1282,840.5C 1286.42,871.476 1286.59,902.476 1282.5,933.5C 1273.43,980.295 1254.1,1022.29 1224.5,1059.5C 1192.14,1096.24 1152.47,1121.74 1105.5,1136C 1089.53,1139.81 1073.53,1143.48 1057.5,1147C 1024.83,1148.99 992.166,1148.99 959.5,1147C 945.942,1143.85 932.275,1140.85 918.5,1138C 800.668,1102.52 755.502,1024.69 783,904.5C 808.352,818.206 858.852,751.039 934.5,703C 947.194,696.25 960.194,690.25 973.5,685C 982.424,682.62 991.257,680.12 1000,677.5C 1015.07,674.372 1030.24,672.539 1045.5,672C 1046.06,671.617 1046.39,671.117 1046.5,670.5 Z"/></g>
<g><path style="opacity:0.986" fill="#fefffe" d="M 253.5,807.5 C 259.071,808.366 263.737,811.033 267.5,815.5C 269.2,818.383 271.2,821.05 273.5,823.5C 295.642,864.58 317.975,905.58 340.5,946.5C 353.752,968.088 367.419,989.422 381.5,1010.5C 391.955,1024.1 402.122,1037.76 412,1051.5C 422.919,1064.05 433.752,1076.72 444.5,1089.5C 457.779,1102.29 470.779,1115.29 483.5,1128.5C 489.075,1131.41 493.742,1135.41 497.5,1140.5C 509.072,1149.47 520.406,1158.47 531.5,1167.5C 624.724,1233.09 728.724,1264.75 843.5,1262.5C 886.374,1262.5 928.874,1259.17 971,1252.5C 1019.18,1243.46 1066.68,1232.46 1113.5,1219.5C 1177.03,1200.74 1239.36,1178.74 1300.5,1153.5C 1321.12,1143.63 1341.79,1133.97 1362.5,1124.5C 1392.11,1108.02 1421.78,1091.69 1451.5,1075.5C 1454.71,1072.75 1458.05,1070.25 1461.5,1068C 1483.51,1055.76 1505.18,1043.1 1526.5,1030C 1533.48,1026.91 1540.48,1023.74 1547.5,1020.5C 1557.13,1017.32 1566.96,1014.99 1577,1013.5C 1590.07,1014.54 1601.07,1019.87 1610,1029.5C 1622.04,1048.1 1628.54,1068.44 1629.5,1090.5C 1630.96,1118.57 1630.13,1146.57 1627,1174.5C 1612.34,1259.45 1582.68,1338.78 1538,1412.5C 1517.08,1445.71 1493.74,1477.04 1468,1506.5C 1455.01,1518.99 1442.18,1531.65 1429.5,1544.5C 1376.77,1591.28 1316.44,1625.61 1248.5,1647.5C 1173.85,1669.7 1097.51,1678.04 1019.5,1672.5C 869.889,1660.63 732.889,1613.79 608.5,1532C 539.626,1483.96 479.626,1426.46 428.5,1359.5C 336.174,1233.47 276.674,1093.13 250,938.5C 249.167,896.163 249.333,853.829 250.5,811.5C 251.524,810.148 252.524,808.815 253.5,807.5 Z"/></g>
</svg>
